PathFileType	4	(X/Y/Z)	TVC_26_BWA1_walk_RCNL2025.trc
DataRate	CameraRate	NumFrames	NumMarkers	Units	OrigDataRate	OrigDataStartFrame	OrigNumFrames
100	100	13	27	mm	100	638	728
Frame#	Time	R_Shoulder			L_Shoulder			C7			J_Notch			R_Elbow			L_Elbow			R_Wrist			L_Wrist			R_Asis			L_Asis			R_Psis			L_Psis			Sacral			Thoracic			Sternum			R_Thigh_Lateral			R_Knee_Lateral			R_Shank_Lateral			R_Ankle_Lateral			R_Heel			R_Toe			L_Thigh_Lateral			L_Knee_Lateral			L_Shank_Lateral			L_Ankle_Lateral			L_Heel			L_Toe		
		X1	Y1	Z1	X2	Y2	Z2	X3	Y3	Z3	X4	Y4	Z4	X5	Y5	Z5	X6	Y6	Z6	X7	Y7	Z7	X8	Y8	Z8	X9	Y9	Z9	X10	Y10	Z10	X11	Y11	Z11	X12	Y12	Z12	X13	Y13	Z13	X14	Y14	Z14	X15	Y15	Z15	X16	Y16	Z16	X17	Y17	Z17	X18	Y18	Z18	X19	Y19	Z19	X20	Y20	Z20	X21	Y21	Z21	X22	Y22	Z22	X23	Y23	Z23	X24	Y24	Z24	X25	Y25	Z25	X26	Y26	Z26	X27	Y27	Z27
638	6.37000000	578.868103	1356.284546	224.677734	587.669922	1362.970947	-95.662750	506.746155	1397.643555	69.319962	655.294067	1299.988159	77.086380	611.804871	1013.258118	332.432983	545.337585	1031.282104	-185.677917	750.565582	847.317383	330.234161	621.520966	818.826385	-169.989960	643.415161	956.059387	247.350571	680.078674	950.345886	-46.552689	443.794739	950.086304	141.641174	467.069489	940.193726	-1.185288	455.432114	945.140015	70.227943	446.684723	1118.606201	58.520119	708.923706	1065.008911	76.522095	568.679199	566.991943	275.291321	560.117126	442.015259	209.235916	495.505005	265.064240	247.615738	445.158386	72.067932	178.228790	399.279480	57.608002	126.118286	577.991943	41.718903	173.740143	756.999878	604.306213	-98.895493	762.147583	482.643250	-38.323742	779.783813	274.529114	-84.040916	785.384827	72.991432	-17.489136	741.922852	48.393421	36.978199	919.888916	62.629456	-10.987131
639	6.38000000	584.115662	1355.606323	223.437988	592.912109	1361.876709	-96.929390	511.936340	1396.681763	68.009583	660.594604	1299.270142	75.919212	615.613159	1012.734375	332.110016	550.581360	1030.265137	-187.019531	752.050873	844.825958	331.217529	624.231537	817.434479	-171.114700	649.324463	955.054199	246.615631	686.339966	949.554077	-47.067757	449.792450	948.873230	140.948471	472.992035	939.268433	-1.961643	461.392242	944.070831	69.493414	452.381805	1117.498779	57.678772	714.645752	1064.299683	75.773064	573.244263	566.101685	274.570709	563.527344	441.200256	208.536469	497.224579	265.000824	247.087296	445.406860	72.128357	178.013062	399.539062	57.853558	125.932793	578.111267	41.572872	173.721832	762.804260	602.743896	-99.089134	767.963257	481.863098	-38.517994	783.854614	273.167908	-83.964897	786.385437	71.735397	-17.773756	742.395386	47.684128	36.582230	920.586304	59.331512	-10.836705
640	6.39000000	589.457947	1354.958618	222.154968	598.172363	1360.791992	-98.235107	517.169434	1395.738403	66.667542	665.932251	1298.568359	74.700333	619.446045	1012.292114	331.844360	555.920410	1029.247925	-188.393036	753.485016	842.421326	332.362701	627.302704	816.415588	-172.472038	655.373718	953.923096	245.748596	692.604980	948.805481	-47.621662	455.869385	947.647461	140.281113	478.914246	938.380066	-2.756032	467.391815	943.013763	68.762541	458.112518	1116.422363	56.852989	720.412170	1063.600952	74.967865	578.061157	565.105530	273.724487	567.210144	440.319000	207.759018	499.105774	264.929932	246.482300	445.669800	72.226181	177.757797	399.826721	58.148815	125.697372	578.248230	41.432243	173.695831	768.425415	601.354980	-99.459076	773.834106	481.175659	-38.803978	787.792969	271.914948	-83.935394	787.333130	70.612846	-18.001238	742.851807	47.187485	36.281132	921.303833	56.105659	-10.651777
641	6.40000000	594.889038	1354.347046	220.833572	603.445679	1359.728516	-99.575104	522.440491	1394.822876	65.299072	671.300903	1297.888550	73.433174	623.299255	1011.935913	331.632996	561.348206	1028.242432	-189.793854	754.872406	840.120148	333.664352	630.934998	815.655884	-174.190506	661.547363	952.680237	244.743103	698.853271	948.109253	-48.217384	462.010254	946.421509	139.631470	484.823578	937.536926	-3.571910	473.416916	941.979218	68.029780	463.863708	1115.388306	56.040459	726.211548	1062.920288	74.103760	583.136353	563.995178	272.749847	571.179810	439.374237	206.912903	501.157745	264.856842	245.802094	445.948486	72.379211	177.455841	400.146423	58.513680	125.399673	578.403381	41.304222	173.662476	773.874207	600.210876	-100.037064	779.774597	480.594849	-39.182419	791.718872	270.795624	-83.956383	788.317566	69.656425	-18.178440	743.376404	46.916054	36.049938	922.140259	53.050262	-10.396770
642	6.41000000	600.400757	1353.776245	219.478607	608.726868	1358.697998	-100.944641	527.743591	1393.944458	63.909142	676.693909	1297.237061	72.121330	627.167664	1011.669434	331.471832	566.857544	1027.260742	-191.217834	756.217529	837.938049	335.115707	635.226593	814.983337	-176.293587	667.826538	951.346130	243.596680	705.063660	947.474976	-48.861809	468.198883	945.208313	138.989304	490.708252	936.745972	-4.413039	479.453568	940.977142	67.288132	469.622589	1114.407104	55.237434	732.031799	1062.265503	73.177971	588.462341	562.770386	271.651886	575.448608	438.371796	206.012802	503.387787	264.790741	245.053040	446.245911	72.608940	177.101776	400.503784	58.973083	125.028519	578.578064	41.194725	173.622086	779.197632	599.355164	-100.840881	785.796509	480.123108	-39.651199	795.745361	269.809204	-84.023125	789.385864	68.879753	-18.313299	744.009583	46.860188	35.862492	923.140625	50.240974	-10.049238
643	6.42000000	605.982483	1353.250732	218.094696	614.010132	1357.712158	-102.339165	533.072144	1393.111572	62.502365	682.104126	1296.619629	70.768517	631.045227	1011.495239	331.355804	572.440735	1026.314697	-192.661240	757.524780	835.889282	336.708542	640.145111	814.261078	-178.710373	674.189148	949.947205	242.311356	711.215332	946.912048	-49.565914	474.418610	944.021362	138.342148	496.557587	936.013000	-5.283354	485.488098	940.017181	66.529397	475.376923	1113.488403	54.438801	737.860291	1061.644653	72.187675	594.014160	561.442688	270.443726	580.026978	437.320770	205.078659	505.801636	264.744568	244.246994	446.567505	72.940704	176.693039	400.906464	59.556942	124.575470	578.774475	41.107880	173.574753	784.468994	598.793152	-101.869514	791.901550	479.749878	-40.206047	799.955444	268.927979	-84.124184	790.547363	68.278473	-18.412954	744.755981	46.992344	35.697716	924.302795	47.727436	-9.606969
644	6.43000000	611.621582	1352.774048	216.686203	619.289734	1356.781982	-103.754387	538.418823	1392.332397	61.082951	687.523926	1296.041748	69.378517	634.925354	1011.414856	331.278900	578.089905	1025.416016	-194.120911	758.798553	833.986481	338.433151	645.556580	813.440674	-181.326408	680.610596	948.515076	240.893936	717.288452	946.429016	-50.344593	480.652405	942.874268	137.675598	502.362274	935.342407	-6.186860	491.507339	939.108337	65.744369	481.115173	1112.640503	53.638222	743.684326	1061.065186	71.130119	599.748413	560.038574	269.145020	584.923645	436.233551	204.135071	508.404907	264.735260	243.400970	446.921844	73.403595	176.230576	401.364410	60.299870	124.036423	578.995361	41.045559	173.520111	789.769775	598.489685	-103.101692	798.074707	479.453033	-40.842148	804.380798	268.103912	-84.246727	791.782776	67.833809	-18.483255	745.595459	47.273933	35.542912	925.591492	45.534348	-9.089161
645	6.44000000	617.303467	1352.349121	215.257126	624.559448	1355.918213	-105.186317	543.775696	1391.614014	59.654629	692.945618	1295.508667	67.955147	638.800720	1011.428589	331.234375	583.796814	1024.575684	-195.594208	760.043396	832.240662	340.278564	651.290863	812.550293	-184.029121	687.064148	947.085083	239.355820	723.265015	946.033264	-51.215942	486.883270	941.780273	136.973938	508.114563	934.737366	-7.127547	497.498917	938.258820	64.923195	486.826691	1111.870605	52.828331	749.491272	1060.534424	70.002663	605.604736	558.600769	267.779907	590.146240	435.125610	203.210327	511.204773	264.782959	242.536484	447.321350	74.030159	175.719635	401.890137	61.240688	123.412910	579.244202	41.006905	173.457047	795.168884	598.375366	-104.499123	804.280090	479.202240	-41.556129	808.990662	267.282074	-84.383133	793.055237	67.517677	-18.529284	746.493896	47.662136	35.393559	926.952637	43.664753	-8.530881
646	6.45000000	623.011841	1351.978516	213.811127	629.813232	1355.130615	-106.631332	549.134338	1390.962891	58.220596	698.361145	1295.025146	66.502213	642.663696	1011.535889	331.214752	589.552979	1023.804138	-197.079178	761.263885	830.660919	342.232437	657.202637	811.653229	-186.730980	693.521912	945.695374	237.712387	729.129395	945.730225	-52.200100	493.094147	940.752686	136.220947	513.808289	934.200134	-8.109317	503.451218	937.476410	64.055815	492.501770	1111.184570	52.001011	755.268982	1060.059570	68.802895	611.510986	557.187195	266.374390	595.702637	434.014954	202.335144	514.212158	264.910187	241.678375	447.782654	74.855865	175.170059	402.499084	62.421852	122.712959	579.524536	40.987972	173.383423	800.704834	598.361633	-106.013893	810.459778	478.964142	-42.347462	813.696167	266.416168	-84.535454	794.320312	67.298447	-18.556065	747.411377	48.115253	35.250843	928.326355	42.104286	-7.973325
647	6.46000000	628.729309	1351.663940	212.351410	635.044861	1354.427856	-108.086205	554.486206	1390.384521	56.783489	703.762573	1294.595337	65.023460	646.506409	1011.734985	331.212097	595.350037	1023.110596	-198.574432	762.464600	829.254395	344.281189	663.202240	810.813202	-189.378464	699.955688	944.384827	235.981995	734.868835	945.523926	-53.317707	499.268127	939.803833	135.400787	519.438965	933.731934	-9.135922	509.353546	936.767883	63.132432	498.131714	1110.586670	51.147694	761.005615	1059.646729	67.528755	617.390747	555.866516	264.954285	601.601929	432.921173	201.541077	517.443542	265.140533	240.853699	448.327209	75.918175	174.596466	403.210144	63.888668	121.951714	579.839722	40.981613	173.295929	806.374756	598.358704	-107.598152	816.537292	478.707245	-43.218777	818.369141	265.479828	-84.715393	795.533997	67.145950	-18.568905	748.308777	48.596283	35.118710	929.655579	40.826275	-7.454463
648	6.47000000	634.437805	1351.406372	210.880814	640.248474	1353.817505	-109.548096	559.822754	1389.883301	55.345371	709.141968	1294.222900	63.522591	650.320984	1012.023132	331.218170	601.179321	1022.503174	-200.079254	763.650269	828.026123	346.410126	669.257446	810.073914	-191.953629	706.337952	943.191711	234.184586	740.473877	945.416992	-54.588116	505.388336	938.945557	134.499207	525.003479	933.333557	-10.210888	515.195908	936.139557	62.144159	503.708862	1110.079712	50.259727	766.690308	1059.301758	66.178635	623.173889	554.710632	263.544159	607.855164	431.864410	200.859085	520.922913	265.497009	240.090744	448.981384	77.255226	174.018036	404.045746	65.688194	121.151695	580.192139	40.977737	173.190323	812.130798	598.292786	-109.213470	822.424438	478.406342	-44.174908	822.868591	264.470306	-84.939865	796.657837	67.034683	-18.573267	749.151489	49.074841	35.001511	930.891785	39.796940	-7.003755
649	6.48000000	640.119080	1351.206665	209.401749	645.418396	1353.305664	-111.014549	565.135559	1389.462402	53.907772	714.491699	1293.910645	62.003189	654.099548	1012.396790	331.224487	607.032288	1021.988708	-201.593506	764.825714	826.979126	348.603561	675.382599	809.446930	-194.464714	712.642944	942.151489	232.340225	745.938538	945.410767	-56.027504	511.438110	938.188782	133.504578	530.500061	933.005432	-11.337382	520.969086	935.597107	61.083598	509.226593	1109.665283	49.328735	772.312988	1059.029053	64.751556	628.808228	553.785278	262.167023	614.476440	430.864105	200.317871	524.682129	266.000793	239.418152	449.776245	78.904228	173.457962	405.032135	67.867783	120.342667	580.582520	40.963921	173.061447	817.882629	598.116333	-110.837463	828.030884	478.045319	-45.220924	827.065369	263.404358	-85.224678	797.661377	66.944855	-18.574404	749.912354	49.527905	34.902691	931.997925	38.979816	-6.640820
650	6.49000000	645.755127	1351.064453	207.916290	650.549561	1352.896729	-112.483437	570.416504	1389.123901	52.471756	719.804565	1293.660400	60.468754	657.834595	1012.851318	331.222626	612.900513	1021.572449	-203.117584	765.995972	826.114227	350.844894	681.620209	808.908752	-196.932198	718.847351	941.294861	230.467529	751.260559	945.505615	-57.647053	517.400818	937.543091	132.409042	535.927795	932.747559	-12.518064	526.664307	935.145325	59.945489	514.679260	1109.343018	48.346966	777.864746	1058.832397	63.247322	634.271484	553.140320	260.844727	621.482788	429.937988	199.942581	528.760681	266.669830	238.863876	450.747345	80.899788	172.942520	406.199341	70.473534	119.560486	581.009277	40.926418	172.903397	823.505615	597.810608	-112.466118	833.274109	477.618103	-46.359631	830.857544	262.309509	-85.580208	798.523926	66.862221	-18.577045	750.573059	49.939751	34.824203	932.949646	38.339195	-6.375770
